HIERARCHY
ROOT Hips
{
  OFFSET -31.5692 30.0904 122.763
  CHANNELS 6 Xposition Yposition Zposition Zrotation Xrotation Yrotation
  JOINT LeftUpLeg
  {
    OFFSET 8.64259 1.95398 -2.38835
    CHANNELS 3 Zrotation Xrotation Yrotation
    JOINT LeftLeg
    {
      OFFSET 43.7702 0 0
      CHANNELS 3 Zrotation Xrotation Yrotation
      JOINT LeftFoot
      {
        OFFSET 40.6238 0 0
        CHANNELS 3 Zrotation Xrotation Yrotation
        JOINT LeftToeBase
        {
          OFFSET 12.7242 0 0
          CHANNELS 3 Zrotation Xrotation Yrotation
          End Site
          {
            OFFSET 0 0 0
          }
        }
      }
    }
  }
  JOINT RightUpLeg
  {
    OFFSET -8.2249 1.95398 -2.59336
    CHANNELS 3 Zrotation Xrotation Yrotation
    JOINT RightLeg
    {
      OFFSET 43.5653 0 0
      CHANNELS 3 Zrotation Xrotation Yrotation
      JOINT RightFoot
      {
        OFFSET 40.6238 0 0
        CHANNELS 3 Zrotation Xrotation Yrotation
        JOINT RightToeBase
        {
          OFFSET 12.7242 0 0
          CHANNELS 3 Zrotation Xrotation Yrotation
          End Site
          {
            OFFSET 0 0 0
          }
        }
      }
    }
  }
  JOINT Spine
  {
    OFFSET 0.165834 0.87714 6.61349
    CHANNELS 3 Zrotation Xrotation Yrotation
    JOINT Spine1
    {
      OFFSET 7.38963 1.71661e-005 0
      CHANNELS 3 Zrotation Xrotation Yrotation
      JOINT Spine2
      {
        OFFSET 11.9445 1.14441e-005 0
        CHANNELS 3 Zrotation Xrotation Yrotation
        JOINT Spine3
        {
          OFFSET 14.7254 4.19617e-005 0
          CHANNELS 3 Zrotation Xrotation Yrotation
          JOINT Spine4
          {
            OFFSET 10.9679 0 0
            CHANNELS 3 Zrotation Xrotation Yrotation
            JOINT RightShoulder
            {
              OFFSET 2.46616 -1.6653 3.69651
              CHANNELS 3 Zrotation Xrotation Yrotation
              JOINT RightArm
              {
                OFFSET 13.0012 0 0
                CHANNELS 3 Zrotation Xrotation Yrotation
                JOINT RightForeArm
                {
                  OFFSET 28.7848 1.62311e-005 0
                  CHANNELS 3 Zrotation Xrotation Yrotation
                  JOINT RightHand
                  {
                    OFFSET 26.5688 1.62095e-005 0
                    CHANNELS 3 Zrotation Xrotation Yrotation
                    End Site
                    {
                      OFFSET 0 0 0
                    }
                  }
                }
              }
            }
            JOINT LeftShoulder
            {
              OFFSET 2.38034 -1.29275 -3.7523
              CHANNELS 3 Zrotation Xrotation Yrotation
              JOINT LeftArm
              {
                OFFSET 16.3182 6.07031e-005 0
                CHANNELS 3 Zrotation Xrotation Yrotation
                JOINT LeftForeArm
                {
                  OFFSET 27.0901 0 0
                  CHANNELS 3 Zrotation Xrotation Yrotation
                  JOINT LeftHand
                  {
                    OFFSET 24.5451 1.51738e-005 0
                    CHANNELS 3 Zrotation Xrotation Yrotation
                    End Site
                    {
                      OFFSET 0 0 0
                    }
                  }
                }
              }
            }
            JOINT Neck
            {
              OFFSET 5.0226 -0.0266342 0
              CHANNELS 3 Zrotation Xrotation Yrotation
              JOINT Head
              {
                OFFSET 6.69364 2.86102e-005 0
                CHANNELS 3 Zrotation Xrotation Yrotation
                End Site
                {
                  OFFSET 0 0 0
                }
              }
            }
          }
        }
      }
    }
  }
}
MOTION
Frames:	7
Frame Time:	0.0416667
19.3301 94.6149 41.7336 83.8222 -47.6746 89.1233 -166.864 -5.81612 88.54 -77.3398 0.98509 0.698564 56.8335 -5.33039 3.74854 20.6246 -1.059 -6.94042 -179.415 35.439 97.2356 -32.382 -14.1173 -0.350658 64.1057 -2.26547 0.0495664 23.0004 1.74941 3.71268 -0.725286 7.76498 -91.178 11.3209 -1.99218 -2.14709 -0.350169 -2.08473 -2.05735 -22.8769 -1.25504 -2.6463 -2.86423 -1.25505 -2.6463 89.6364 -25.9651 -109.167 7.77158 -5.29537 -22.1888 12.3935 8.11214 -59.907 -20.9922 3.7154 -22.6408 -92.3631 -49.4742 75.0734 -7.91503 -7.99599 -36.3138 142.461 65.9309 -130.05 25.5835 -24.8729 -91.7045 17.6962 9.60672 3.46254 -11.4777 8.17129 2.07945 
24.8952 93.0952 47.0169 84.894 -46.6587 89.2644 -164.23 0.514693 90.5972 -89.3958 -6.2381 1.93827 61.2247 -2.71978 5.54463 18.1274 -2.14587 -6.84076 178.655 36.9632 97.2288 -45.1183 -16.7 -0.363142 67.8729 -4.42865 -2.72779 13.2466 4.61597 7.7793 -0.462172 7.84613 -91.0729 11.1649 -1.41844 -1.99726 -0.50676 -1.50495 -1.93291 -23.0317 -0.752782 -2.33105 -3.0191 -0.752798 -2.33106 89.6314 -24.5865 -109.808 6.57612 -3.96253 -23.0765 13.4006 9.30052 -59.6169 -22.6381 3.85857 -21.7642 -93.0414 -50.4311 74.3134 -6.53057 -6.49984 -39.5494 95.5932 74.1768 -86.5033 16.2902 -19.5414 -101.163 17.696 8.5893 4.9829 -10.0071 6.84375 0.552473 
29.6388 91.4102 52.0419 84.6068 -45.9366 90.6828 -162.941 12.3812 89.3107 -101.756 -6.76411 3.79354 63.8509 -0.726485 7.07374 15.5101 -3.02208 -7.33873 177.462 36.4245 99.6096 -53.3995 -13.749 -0.000291075 73.8666 -9.33249 -2.82017 23.0321 1.54219 4.50483 -0.050071 7.95248 -91.2168 10.956 -0.662913 -2.3579 -0.716896 -0.766006 -2.32647 -23.2349 0.0761553 -2.44808 -3.22223 0.0761471 -2.44808 89.7291 -23.6686 -110.027 5.20423 -1.06454 -24.7752 13.9546 10.6619 -58.9302 -22.1373 3.63972 -20.789 -93.3927 -51.1282 73.9803 -5.85839 -5.16155 -42.784 33.1774 56.054 -30.9121 1.92994 -0.611738 -106.642 20.1714 7.51338 5.92878 -9.56969 5.41315 -0.0632986 
34.0703 90.5008 57.241 84.5204 -44.2448 92.6606 -165.526 24.5119 91.5383 -111.515 1.62859 4.94164 64.6176 1.45703 11.26 12.6502 -3.94221 -7.97795 174.981 32.6969 101.944 -56.6357 -12.3645 1.17924 79.4287 -13.6154 -3.90696 23.0539 0.797659 7.36012 0.258921 8.05727 -91.3725 10.75 -0.11729 -2.71843 -0.923799 -0.236756 -2.71065 -23.4372 0.704858 -2.62815 -3.42452 0.704851 -2.62814 89.589 -23.697 -110.315 3.54916 1.11901 -26.2422 20.1273 16.6669 -59.2436 -23.5229 3.48964 -18.0943 -93.6363 -50.341 73.4127 -5.96012 -3.97988 -45.1817 9.30244 17.8751 -22.0876 -12.9932 3.87387 -78.7125 23.1361 6.09558 5.28449 -10.3714 4.06366 0.149842 
39.6699 89.7521 62.9103 85.0292 -41.6167 92.4074 -169.453 33.3219 90.2649 -115.855 7.26203 5.12049 67.87 4.66565 12.4427 12.6404 -3.38334 -9.11269 173.47 26.8304 100.856 -58.4227 -11.3016 1.65182 84.7874 -16.8493 -2.86947 26.5184 0.00376908 4.72404 0.33075 8.16627 -91.3395 10.5342 0.0437299 -2.66606 -1.13948 -0.0736245 -2.66541 -23.6543 0.84271 -2.52984 -3.64167 0.842701 -2.52985 89.7642 -21.4539 -111.046 3.68197 2.57617 -25.9969 16.6846 14.9775 -57.0604 -22.3097 3.6466 -19.8673 -92.4686 -50.8592 75.2676 -5.58851 -1.83958 -48.0713 -1.6373 -5.65632 -24.989 -20.0395 8.73107 -57.5247 25.4682 5.41485 7.00308 -11.7326 2.79532 -1.77462 
45.6835 89.4557 68.9775 85.705 -38.678 91.2749 -172.69 40.3002 88.0562 -115.196 8.33975 5.0358 71.5318 7.12835 11.481 16.9869 -1.33447 -9.70749 172.74 18.8612 99.2194 -56.8504 -8.30976 1.75864 89.4816 -20.4185 -3.36299 27.7497 -0.851805 6.38695 0.442922 8.19381 -91.1045 10.4855 0.375429 -2.22871 -1.18728 0.277016 -2.24307 -23.7099 1.02776 -2.01301 -3.69724 1.02778 -2.013 89.5509 -21.8412 -111.325 4.49114 4.37073 -24.6809 15.5573 15.3034 -55.8859 -21.4642 3.69616 -20.6509 -92.0362 -49.5082 75.5706 -7.43338 0.823499 -49.2725 -7.00148 -16.6725 -28.8349 -16.3244 4.20905 -41.5155 25.2396 3.12396 6.29021 -11.2929 0.885549 -2.22013 
51.9061 90.0217 75.0526 84.741 -37.0974 87.865 -171.554 46.6311 83.0635 -109.528 6.1082 4.50007 74.0417 8.41933 10.0172 22.4839 -0.696898 -5.91766 171.747 12.2414 95.9453 -53.3191 -10.68 1.56851 88.1338 -20.0832 -5.47214 31.8808 -2.26697 4.91004 0.609441 8.01985 -90.6696 10.8391 0.904142 -1.41872 -0.832361 0.840851 -1.45714 -23.3661 1.28868 -1.08145 -3.35346 1.28871 -1.08144 88.7084 -23.5423 -112.303 5.7053 5.82289 -23.011 15.6311 16.7573 -54.7009 -20.4294 3.544 -20.381 -91.5359 -49.7132 76.3676 -5.73455 4.05464 -50.1383 -10.0826 -22.0561 -30.0075 -15.3668 3.07363 -35.971 23.5823 0.78301 4.75436 -10.3869 -0.740265 -2.41487 
